0
SECTION
2
HEADER
9
$INSUNITS
70
4
9
$ACADVER
1
AC1014
9
$HANDSEED
5
FFFF
0
ENDSEC
0
SECTION
2
TABLES
0
TABLE
2
VPORT
5
8
100
AcDbSymbolTable
0
ENDTAB
0
TABLE
2
LTYPE
5
5
100
AcDbSymbolTable
0
LTYPE
5
14
100
AcDbSymbolTableRecord
100
AcDbLinetypeTableRecord
2
BYBLOCK
70
0
0
LTYPE
5
15
100
AcDbSymbolTableRecord
100
AcDbLinetypeTableRecord
2
BYLAYER
70
0
0
ENDTAB
0
TABLE
2
LAYER
5
2
100
AcDbSymbolTable
70
2
0
LAYER
5
50
100
AcDbSymbolTableRecord
100
AcDbLayerTableRecord
2
0
70
0
6
CONTINUOUS
0
ENDTAB
0
TABLE
2
STYLE
5
3
100
AcDbSymbolTable
70
1
0
STYLE
5
11
100
AcDbSymbolTableRecord
100
AcDbTextStyleTableRecord
2
STANDARD
70
0
0
ENDTAB
0
TABLE
2
VIEW
5
6
100
AcDbSymbolTable
70
0
0
ENDTAB
0
TABLE
2
UCS
5
7
100
AcDbSymbolTable
70
0
0
ENDTAB
0
TABLE
2
APPID
5
9
100
AcDbSymbolTable
70
2
0
APPID
5
12
100
AcDbSymbolTableRecord
100
AcDbRegAppTableRecord
2
ACAD
70
0
0
ENDTAB
0
TABLE
2
DIMSTYLE
5
A
100
AcDbSymbolTable
70
1
0
ENDTAB
0
TABLE
2
BLOCK_RECORD
5
1
100
AcDbSymbolTable
70
1
0
BLOCK_RECORD
5
1F
100
AcDbSymbolTableRecord
100
AcDbBlockTableRecord
2
*MODEL_SPACE
0
BLOCK_RECORD
5
1B
100
AcDbSymbolTableRecord
100
AcDbBlockTableRecord
2
*PAPER_SPACE
0
ENDTAB
0
ENDSEC
0
SECTION
2
BLOCKS
0
BLOCK
5
20
100
AcDbEntity
100
AcDbBlockBegin
2
*MODEL_SPACE
0
ENDBLK
5
21
100
AcDbEntity
100
AcDbBlockEnd
0
BLOCK
5
1C
100
AcDbEntity
100
AcDbBlockBegin
2
*PAPER_SPACE
0
ENDBLK
5
1D
100
AcDbEntity
100
AcDbBlockEnd
0
ENDSEC
0
SECTION
2
ENTITIES
0
CIRCLE
5
100
100
AcDbEntity
8
0
100
AcDbCircle
10
16.750000409128589
20
-37.451678217022604
30
0
40
2.0000000298023224
210
0
220
-0
230
1
0
SPLINE
5
101
100
AcDbEntity
8
0
100
AcDbSpline
70
0
71
3
72
18
73
14
74
0
42
0.000000001
43
0.0000000001
44
0.0000000001
40
-0.75931690487695958
40
-0.75931690487695958
40
-0.75931690487695958
40
-0.75931690487695958
40
-0.73767885591499804
40
-0.73767885591499804
40
-0.67948289590705635
40
-0.67948289590705635
40
-0.62128693589911466
40
-0.62128693589911466
40
-0.56309097589117285
40
-0.56309097589117285
40
-0.50489501588323105
40
-0.50489501588323105
40
-0.48325696692126968
40
-0.48325696692126968
40
-0.48325696692126968
40
-0.48325696692126968
10
-35.500001543667167
20
7.8228768775788771
30
0
10
-35.450024473979333
20
7.7662082928468799
30
0
10
-35.404107490615722
20
7.7076109693399175
30
0
10
-35.251333501144295
20
7.4898325520978215
30
0
10
-35.155697663289338
20
7.3012975278576704
30
0
10
-35.030024522902259
20
6.9033919814849289
30
0
10
-35.000000551342964
20
6.6939866302173536
30
0
10
-35.000000551342964
20
6.306013563497741
30
0
10
-35.030024522902259
20
6.0966082122301621
30
0
10
-35.155697663289338
20
5.6987026658574198
30
0
10
-35.251333501144302
20
5.510167641617274
30
0
10
-35.404107490615729
20
5.2923892243751789
30
0
10
-35.450024473979326
20
5.2337919008682174
30
0
10
-35.500001543667167
20
5.1771233161362185
30
0
0
ARC
5
102
100
AcDbEntity
8
0
100
AcDbCircle
10
-37.000000551342964
20
6.5000000968575478
30
0
40
2.0000000000000022
210
0
220
-0
230
1
100
AcDbArc
50
41.409665088340255
51
318.59033491165974
0
SPLINE
5
103
100
AcDbEntity
8
0
100
AcDbSpline
70
0
71
3
72
18
73
14
74
0
42
0.000000001
43
0.0000000001
44
0.0000000001
40
-0.75931647684268877
40
-0.75931647684268877
40
-0.75931647684268877
40
-0.75931647684268877
40
-0.73767859437338323
40
-0.73767859437338323
40
-0.67948266378781108
40
-0.67948266378781108
40
-0.62128673320223893
40
-0.62128673320223893
40
-0.56309080261666677
40
-0.56309080261666677
40
-0.50489487203109462
40
-0.50489487203109462
40
-0.48325698956178925
40
-0.48325698956178925
40
-0.48325698956178925
40
-0.48325698956178925
10
35.499999999999929
20
5.1771250664897517
30
0
10
35.450023392248475
20
5.2337932607337647
30
0
10
35.40410681373308
20
5.2923901519924197
30
0
10
35.25133326285917
20
5.5101680815443395
30
0
10
35.155697513881854
20
5.6987030356196637
30
0
10
35.03002449268925
20
6.0966084111812746
30
0
10
35.000000551342964
20
6.3060136615723072
30
0
10
35.000000551342964
20
6.6939865321427883
30
0
10
35.03002449268925
20
6.9033917825338209
30
0
10
35.155697513881854
20
7.3012971580954318
30
0
10
35.25133326285917
20
7.4898321121707561
30
0
10
35.40410681373308
20
7.7076100417226758
30
0
10
35.450023392248468
20
7.7662069329813281
30
0
10
35.499999999999929
20
7.8228751272253438
30
0
0
ARC
5
104
100
AcDbEntity
8
0
100
AcDbCircle
10
37.000000551342964
20
6.5000000968575478
30
0
40
2.0000000000000031
210
0
220
0
230
1
100
AcDbArc
50
-138.59040177024968
51
138.59040177024968
0
LWPOLYLINE
5
105
100
AcDbEntity
8
0
100
AcDbPolyline
90
4
70
1
43
0.0
10
10.500000104308127
20
-26
10
10.500000104308127
20
3.9999999999999991
10
3.5
20
3.9999999999999991
10
3.5
20
-26
0
LWPOLYLINE
5
106
100
AcDbEntity
8
0
100
AcDbPolyline
90
30
70
1
43
0.0
10
6.4999997764825546
20
-100.00000081583848
42
-0.41421356237309837
10
2.4999998658895279
20
-96.000000726431523
10
2.5000008940697827
20
-50.000000726431537
10
-2.5
20
-50.000000726431537
10
-2.500001336634317
20
-96.00000064149485
42
-0.41421356040908569
10
-6.5000014260412904
20
-100.0000005252658
10
-16.096876303733985
20
-100.00000031075888
42
-0.17030372583269104
10
-18.595657742187434
20
-99.123474478416384
10
-28.49877189192247
20
-91.200976203295482
42
-0.22783774243516561
10
-29.999990364061937
20
-88.077501070173625
10
-29.999974749475577
20
-23.384958887265132
42
0.30667539699735402
10
-33.142968571381758
20
-18.742595344885867
10
-46.856997039161016
20
-13.256803036903948
42
-0.30667533098072353
10
-49.99999086106736
20
-8.6144407013551767
10
-49.99999086106736
20
10.900981027747967
42
-0.35751074359054918
10
-45.98057190952958
20
15.803884331648286
10
-25.485483661086832
20
19.902903601923548
42
-0.049389008075251706
10
-24.504902612624612
20
20.000000298023224
10
24.504902755635293
20
20.000000298023224
42
-0.049388993878492458
10
25.485483526353761
20
19.902903657472311
10
45.980580901825221
20
15.803883769254863
42
-0.35751075054463122
10
50.000000131106724
20
10.900980569730267
10
50.000000755318183
20
-8.6148352076508612
42
-0.30667845030716956
10
46.856954137088714
20
-13.257218822001668
10
33.143047068867382
20
-18.742781649290208
42
0.30667844185000326
10
30.000000450637899
20
-23.385165109038351
10
30.000000519494392
20
-88.077501843399162
42
-0.22783780309290982
10
28.498780576325476
20
-91.200977192138012
10
18.595655731002097
20
-99.123476374826765
42
-0.17030361617806244
10
16.096875584764028
20
-100.00000103034539
0
ENDSEC
0
SECTION
2
OBJECTS
0
DICTIONARY
5
C
100
AcDbDictionary
3
ACAD_GROUP
350
D
3
ACAD_MLINESTYLE
350
17
0
DICTIONARY
5
D
100
AcDbDictionary
0
DICTIONARY
5
1A
330
C
100
AcDbDictionary
0
DICTIONARY
5
17
100
AcDbDictionary
0
ENDSEC
0
EOF
